<mxfile host="app.diagrams.net" agent="Mozilla/5.0 (Windows NT 10.0; Win64; x64) AppleWebKit/537.36 (KHTML, like Gecko) Chrome/137.0.0.0 Safari/537.36" version="27.1.6">
  <diagram name="Page-1" id="odurnRtaYhK0USjoqjA7">
    <mxGraphModel grid="1" page="1" gridSize="10" guides="1" tooltips="1" connect="1" arrows="1" fold="1" pageScale="1" pageWidth="850" pageHeight="1100" math="0" shadow="0">
      <root>
        <mxCell id="0" />
        <mxCell id="1" parent="0" />
        <mxCell id="EzDOxzL3QdiLNxSiTgu5-28" value="" style="rounded=0;whiteSpace=wrap;html=1;fillColor=none;" vertex="1" parent="1">
          <mxGeometry x="780" y="360" width="176" height="530" as="geometry" />
        </mxCell>
        <mxCell id="EzDOxzL3QdiLNxSiTgu5-80" style="edgeStyle=orthogonalEdgeStyle;rounded=0;orthogonalLoop=1;jettySize=auto;html=1;exitX=0;exitY=1;exitDx=0;exitDy=-15;exitPerimeter=0;entryX=1;entryY=0.25;entryDx=0;entryDy=0;dashed=1;" edge="1" parent="1" source="EQA5PCKPnz818NsDyb5s-19" target="EzDOxzL3QdiLNxSiTgu5-47">
          <mxGeometry relative="1" as="geometry">
            <Array as="points">
              <mxPoint x="810" y="795" />
              <mxPoint x="810" y="851" />
            </Array>
          </mxGeometry>
        </mxCell>
        <mxCell id="EQA5PCKPnz818NsDyb5s-19" value="Boletines Semanales" style="shape=cylinder3;whiteSpace=wrap;html=1;boundedLbl=1;backgroundOutline=1;size=15;" vertex="1" parent="1">
          <mxGeometry x="828.5" y="750" width="101.5" height="60" as="geometry" />
        </mxCell>
        <mxCell id="EzDOxzL3QdiLNxSiTgu5-69" style="edgeStyle=orthogonalEdgeStyle;rounded=0;orthogonalLoop=1;jettySize=auto;html=1;exitX=0;exitY=0;exitDx=0;exitDy=20;exitPerimeter=0;entryX=1;entryY=0.25;entryDx=0;entryDy=0;dashed=1;" edge="1" parent="1" source="EQA5PCKPnz818NsDyb5s-20" target="EzDOxzL3QdiLNxSiTgu5-49">
          <mxGeometry relative="1" as="geometry">
            <Array as="points">
              <mxPoint x="832" y="411" />
              <mxPoint x="810" y="411" />
              <mxPoint x="810" y="410" />
              <mxPoint x="709" y="410" />
              <mxPoint x="709" y="411" />
            </Array>
          </mxGeometry>
        </mxCell>
        <mxCell id="EzDOxzL3QdiLNxSiTgu5-76" style="edgeStyle=orthogonalEdgeStyle;rounded=0;orthogonalLoop=1;jettySize=auto;html=1;exitX=1;exitY=0.5;exitDx=0;exitDy=0;exitPerimeter=0;entryX=1;entryY=0.25;entryDx=0;entryDy=0;dashed=1;" edge="1" parent="1" source="EQA5PCKPnz818NsDyb5s-20" target="EzDOxzL3QdiLNxSiTgu5-43">
          <mxGeometry relative="1" as="geometry">
            <Array as="points">
              <mxPoint x="940" y="425" />
              <mxPoint x="940" y="740" />
              <mxPoint x="760" y="740" />
              <mxPoint x="760" y="791" />
            </Array>
          </mxGeometry>
        </mxCell>
        <mxCell id="EQA5PCKPnz818NsDyb5s-20" value="Noticias" style="shape=cylinder3;whiteSpace=wrap;html=1;boundedLbl=1;backgroundOutline=1;size=15;" vertex="1" parent="1">
          <mxGeometry x="832" y="400" width="78" height="60" as="geometry" />
        </mxCell>
        <mxCell id="EzDOxzL3QdiLNxSiTgu5-68" style="edgeStyle=orthogonalEdgeStyle;rounded=0;orthogonalLoop=1;jettySize=auto;html=1;exitX=1;exitY=0.75;exitDx=0;exitDy=0;entryX=0;entryY=0.75;entryDx=0;entryDy=0;endArrow=none;startFill=0;dashed=1;startArrow=ERmany;" edge="1" parent="1" source="EQA5PCKPnz818NsDyb5s-34" target="EzDOxzL3QdiLNxSiTgu5-47">
          <mxGeometry relative="1" as="geometry">
            <Array as="points">
              <mxPoint x="-30" y="795" />
              <mxPoint x="-30" y="870" />
              <mxPoint x="472" y="870" />
            </Array>
          </mxGeometry>
        </mxCell>
        <mxCell id="EQA5PCKPnz818NsDyb5s-34" value="Servicio de correo" style="rounded=1;whiteSpace=wrap;html=1;" vertex="1" parent="1">
          <mxGeometry x="-200" y="750" width="120" height="60" as="geometry" />
        </mxCell>
        <mxCell id="EQA5PCKPnz818NsDyb5s-35" value="Servicio de correo de respaldo" style="rounded=1;whiteSpace=wrap;html=1;" vertex="1" parent="1">
          <mxGeometry x="-200" y="825" width="120" height="60" as="geometry" />
        </mxCell>
        <mxCell id="EQA5PCKPnz818NsDyb5s-36" value="Sistema de&lt;div&gt;Normalización de direcciones&lt;/div&gt;" style="rounded=1;whiteSpace=wrap;html=1;" vertex="1" parent="1">
          <mxGeometry x="-200" y="530" width="120" height="60" as="geometry" />
        </mxCell>
        <mxCell id="EzDOxzL3QdiLNxSiTgu5-63" style="edgeStyle=orthogonalEdgeStyle;rounded=0;orthogonalLoop=1;jettySize=auto;html=1;exitX=1;exitY=0.5;exitDx=0;exitDy=0;entryX=0;entryY=0.5;entryDx=0;entryDy=0;endArrow=none;startFill=0;startArrow=ERmany;dashed=1;" edge="1" parent="1" source="EQA5PCKPnz818NsDyb5s-37" target="EzDOxzL3QdiLNxSiTgu5-29">
          <mxGeometry relative="1" as="geometry" />
        </mxCell>
        <mxCell id="EzDOxzL3QdiLNxSiTgu5-64" style="edgeStyle=orthogonalEdgeStyle;rounded=0;orthogonalLoop=1;jettySize=auto;html=1;exitX=1;exitY=1;exitDx=0;exitDy=0;entryX=0;entryY=0.25;entryDx=0;entryDy=0;endArrow=none;startFill=0;dashed=1;startArrow=ERmany;" edge="1" parent="1" source="EQA5PCKPnz818NsDyb5s-37" target="EzDOxzL3QdiLNxSiTgu5-31">
          <mxGeometry relative="1" as="geometry">
            <Array as="points">
              <mxPoint x="10" y="510" />
              <mxPoint x="10" y="550" />
            </Array>
          </mxGeometry>
        </mxCell>
        <mxCell id="EQA5PCKPnz818NsDyb5s-37" value="Servicio Mapas" style="rounded=1;whiteSpace=wrap;html=1;" vertex="1" parent="1">
          <mxGeometry x="-200" y="450" width="120" height="60" as="geometry" />
        </mxCell>
        <mxCell id="EzDOxzL3QdiLNxSiTgu5-66" style="edgeStyle=orthogonalEdgeStyle;rounded=0;orthogonalLoop=1;jettySize=auto;html=1;exitX=1;exitY=0.5;exitDx=0;exitDy=0;entryX=0;entryY=0.25;entryDx=0;entryDy=0;endArrow=none;startFill=0;dashed=1;startArrow=ERmany;" edge="1" parent="1" source="EQA5PCKPnz818NsDyb5s-38" target="EzDOxzL3QdiLNxSiTgu5-35">
          <mxGeometry relative="1" as="geometry" />
        </mxCell>
        <mxCell id="EQA5PCKPnz818NsDyb5s-38" value="PrintAllTheThings" style="rounded=1;whiteSpace=wrap;html=1;" vertex="1" parent="1">
          <mxGeometry x="-200" y="610" width="120" height="60" as="geometry" />
        </mxCell>
        <mxCell id="BVJIx_yrys46vWYSmXJ3-1" value="" style="swimlane;startSize=0;" vertex="1" parent="1">
          <mxGeometry x="220" y="360" width="530" height="530" as="geometry" />
        </mxCell>
        <mxCell id="A97eziM5Pve03ugUNSIb-25" value="Administrador&lt;br&gt;&lt;div&gt;de suscripciones&lt;/div&gt;" style="rounded=1;whiteSpace=wrap;html=1;" vertex="1" parent="BVJIx_yrys46vWYSmXJ3-1">
          <mxGeometry x="252.5" y="250" width="115" height="45" as="geometry" />
        </mxCell>
        <mxCell id="EzDOxzL3QdiLNxSiTgu5-46" value="Administrador&lt;br&gt;&lt;div&gt;de Noticias&lt;/div&gt;" style="rounded=1;whiteSpace=wrap;html=1;" vertex="1" parent="BVJIx_yrys46vWYSmXJ3-1">
          <mxGeometry x="250" y="150" width="115" height="45" as="geometry" />
        </mxCell>
        <mxCell id="EzDOxzL3QdiLNxSiTgu5-45" value="Generador de boletines" style="rounded=1;whiteSpace=wrap;html=1;" vertex="1" parent="BVJIx_yrys46vWYSmXJ3-1">
          <mxGeometry x="252.5" y="360" width="115" height="45" as="geometry" />
        </mxCell>
        <mxCell id="EzDOxzL3QdiLNxSiTgu5-44" value="Administrador&lt;br&gt;&lt;div&gt;de preguntas en noticias&lt;/div&gt;" style="rounded=1;whiteSpace=wrap;html=1;" vertex="1" parent="BVJIx_yrys46vWYSmXJ3-1">
          <mxGeometry x="250" y="300" width="127.5" height="45" as="geometry" />
        </mxCell>
        <mxCell id="EzDOxzL3QdiLNxSiTgu5-43" value="Exportador&lt;br&gt;&lt;div&gt;de Noticias&lt;/div&gt;" style="rounded=1;whiteSpace=wrap;html=1;" vertex="1" parent="BVJIx_yrys46vWYSmXJ3-1">
          <mxGeometry x="252.5" y="420" width="115" height="45" as="geometry" />
        </mxCell>
        <mxCell id="EzDOxzL3QdiLNxSiTgu5-89" style="edgeStyle=orthogonalEdgeStyle;rounded=0;orthogonalLoop=1;jettySize=auto;html=1;exitX=0;exitY=0.25;exitDx=0;exitDy=0;entryX=0;entryY=1;entryDx=0;entryDy=0;endArrow=none;startFill=0;startArrow=ERmany;" edge="1" parent="BVJIx_yrys46vWYSmXJ3-1" source="EzDOxzL3QdiLNxSiTgu5-47" target="EzDOxzL3QdiLNxSiTgu5-43">
          <mxGeometry relative="1" as="geometry">
            <Array as="points">
              <mxPoint x="230" y="491" />
              <mxPoint x="230" y="465" />
            </Array>
          </mxGeometry>
        </mxCell>
        <mxCell id="EzDOxzL3QdiLNxSiTgu5-90" style="edgeStyle=orthogonalEdgeStyle;rounded=0;orthogonalLoop=1;jettySize=auto;html=1;exitX=0;exitY=0.5;exitDx=0;exitDy=0;entryX=0;entryY=0.25;entryDx=0;entryDy=0;endArrow=none;startFill=0;startArrow=ERmany;" edge="1" parent="BVJIx_yrys46vWYSmXJ3-1" source="EzDOxzL3QdiLNxSiTgu5-47" target="EzDOxzL3QdiLNxSiTgu5-45">
          <mxGeometry relative="1" as="geometry">
            <Array as="points">
              <mxPoint x="190" y="503" />
              <mxPoint x="190" y="371" />
            </Array>
          </mxGeometry>
        </mxCell>
        <mxCell id="EzDOxzL3QdiLNxSiTgu5-47" value="Administrador&lt;br&gt;&lt;div&gt;de Notificaciones&lt;/div&gt;" style="rounded=1;whiteSpace=wrap;html=1;" vertex="1" parent="BVJIx_yrys46vWYSmXJ3-1">
          <mxGeometry x="252.5" y="480" width="115" height="45" as="geometry" />
        </mxCell>
        <mxCell id="EzDOxzL3QdiLNxSiTgu5-48" value="Administrador&lt;br&gt;&lt;div&gt;de registros&lt;/div&gt;" style="rounded=1;whiteSpace=wrap;html=1;" vertex="1" parent="BVJIx_yrys46vWYSmXJ3-1">
          <mxGeometry x="250" y="100" width="115" height="45" as="geometry" />
        </mxCell>
        <mxCell id="EzDOxzL3QdiLNxSiTgu5-49" value="Administrador&lt;br&gt;&lt;div&gt;de Búsqueda&lt;/div&gt;" style="rounded=1;whiteSpace=wrap;html=1;" vertex="1" parent="BVJIx_yrys46vWYSmXJ3-1">
          <mxGeometry x="250" y="40" width="115" height="45" as="geometry" />
        </mxCell>
        <mxCell id="EzDOxzL3QdiLNxSiTgu5-67" style="edgeStyle=orthogonalEdgeStyle;rounded=0;orthogonalLoop=1;jettySize=auto;html=1;entryX=0;entryY=1;entryDx=0;entryDy=0;startArrow=ERmany;startFill=0;dashed=1;endArrow=none;" edge="1" parent="BVJIx_yrys46vWYSmXJ3-1" target="EzDOxzL3QdiLNxSiTgu5-47">
          <mxGeometry relative="1" as="geometry">
            <Array as="points">
              <mxPoint x="-300" y="520" />
              <mxPoint x="252" y="520" />
            </Array>
            <mxPoint x="-300" y="520" as="sourcePoint" />
          </mxGeometry>
        </mxCell>
        <mxCell id="EzDOxzL3QdiLNxSiTgu5-96" value="" style="rounded=0;orthogonalLoop=1;jettySize=auto;html=1;endArrow=halfCircle;endFill=0;endSize=6;strokeWidth=1;sketch=0;exitX=0;exitY=0.75;exitDx=0;exitDy=0;entryX=0.507;entryY=0.401;entryDx=0;entryDy=0;entryPerimeter=0;" edge="1" parent="BVJIx_yrys46vWYSmXJ3-1" source="EzDOxzL3QdiLNxSiTgu5-45" target="EzDOxzL3QdiLNxSiTgu5-98">
          <mxGeometry relative="1" as="geometry">
            <mxPoint x="300" y="405" as="sourcePoint" />
            <mxPoint x="240" y="405" as="targetPoint" />
            <Array as="points">
              <mxPoint x="235" y="394" />
            </Array>
          </mxGeometry>
        </mxCell>
        <mxCell id="EzDOxzL3QdiLNxSiTgu5-98" value="" style="ellipse;whiteSpace=wrap;html=1;align=center;aspect=fixed;fillColor=none;strokeColor=none;resizable=0;perimeter=centerPerimeter;rotatable=0;allowArrows=0;points=[];outlineConnect=1;" vertex="1" parent="BVJIx_yrys46vWYSmXJ3-1">
          <mxGeometry x="230" y="405" width="10" height="10" as="geometry" />
        </mxCell>
        <mxCell id="EzDOxzL3QdiLNxSiTgu5-97" value="" style="rounded=0;orthogonalLoop=1;jettySize=auto;html=1;endArrow=oval;endFill=0;sketch=0;sourcePerimeterSpacing=0;targetPerimeterSpacing=0;endSize=10;exitX=0;exitY=0.25;exitDx=0;exitDy=0;" edge="1" parent="BVJIx_yrys46vWYSmXJ3-1" source="EzDOxzL3QdiLNxSiTgu5-43" target="EzDOxzL3QdiLNxSiTgu5-98">
          <mxGeometry relative="1" as="geometry">
            <mxPoint x="260" y="405" as="sourcePoint" />
            <Array as="points">
              <mxPoint x="235" y="431" />
            </Array>
          </mxGeometry>
        </mxCell>
        <mxCell id="EzDOxzL3QdiLNxSiTgu5-99" value="" style="sketch=0;pointerEvents=1;shadow=0;dashed=0;html=1;strokeColor=none;fillColor=#505050;labelPosition=center;verticalLabelPosition=bottom;verticalAlign=top;outlineConnect=0;align=center;shape=mxgraph.office.concepts.clock;" vertex="1" parent="BVJIx_yrys46vWYSmXJ3-1">
          <mxGeometry x="357.5" y="350" width="20" height="20" as="geometry" />
        </mxCell>
        <mxCell id="EzDOxzL3QdiLNxSiTgu5-100" value="" style="sketch=0;pointerEvents=1;shadow=0;dashed=0;html=1;strokeColor=none;fillColor=#505050;labelPosition=center;verticalLabelPosition=bottom;verticalAlign=top;outlineConnect=0;align=center;shape=mxgraph.office.concepts.clock;" vertex="1" parent="BVJIx_yrys46vWYSmXJ3-1">
          <mxGeometry x="357.5" y="405" width="20" height="20" as="geometry" />
        </mxCell>
        <mxCell id="EzDOxzL3QdiLNxSiTgu5-50" value="Administrador&lt;br&gt;&lt;div&gt;de Acceso&lt;/div&gt;" style="rounded=1;whiteSpace=wrap;html=1;" vertex="1" parent="BVJIx_yrys46vWYSmXJ3-1">
          <mxGeometry x="250" y="195" width="115" height="45" as="geometry" />
        </mxCell>
        <mxCell id="EzDOxzL3QdiLNxSiTgu5-128" value="Lógica" style="rounded=0;whiteSpace=wrap;html=1;fillColor=#f5f5f5;strokeColor=#666666;fontColor=#333333;" vertex="1" parent="BVJIx_yrys46vWYSmXJ3-1">
          <mxGeometry x="410" width="120" height="30" as="geometry" />
        </mxCell>
        <mxCell id="A97eziM5Pve03ugUNSIb-11" value="" style="swimlane;startSize=0;" vertex="1" parent="1">
          <mxGeometry x="20" y="360" width="170" height="530" as="geometry" />
        </mxCell>
        <mxCell id="EzDOxzL3QdiLNxSiTgu5-29" value="" style="rounded=0;whiteSpace=wrap;html=1;fillColor=#f5f5f5;fontColor=#333333;strokeColor=#666666;" vertex="1" parent="A97eziM5Pve03ugUNSIb-11">
          <mxGeometry x="40" y="100" width="80" height="40" as="geometry" />
        </mxCell>
        <mxCell id="EzDOxzL3QdiLNxSiTgu5-30" value="UI Visitante" style="rounded=0;whiteSpace=wrap;html=1;" vertex="1" parent="A97eziM5Pve03ugUNSIb-11">
          <mxGeometry x="50" y="110" width="80" height="40" as="geometry" />
        </mxCell>
        <mxCell id="EzDOxzL3QdiLNxSiTgu5-31" value="" style="rounded=0;whiteSpace=wrap;html=1;fillColor=#f5f5f5;fontColor=#333333;strokeColor=#666666;" vertex="1" parent="A97eziM5Pve03ugUNSIb-11">
          <mxGeometry x="40" y="180" width="80" height="40" as="geometry" />
        </mxCell>
        <mxCell id="EzDOxzL3QdiLNxSiTgu5-32" value="UI Vecino" style="rounded=0;whiteSpace=wrap;html=1;" vertex="1" parent="A97eziM5Pve03ugUNSIb-11">
          <mxGeometry x="50" y="190" width="80" height="40" as="geometry" />
        </mxCell>
        <mxCell id="EzDOxzL3QdiLNxSiTgu5-33" value="" style="rounded=0;whiteSpace=wrap;html=1;fillColor=#f5f5f5;fontColor=#333333;strokeColor=#666666;" vertex="1" parent="A97eziM5Pve03ugUNSIb-11">
          <mxGeometry x="40" y="290" width="80" height="40" as="geometry" />
        </mxCell>
        <mxCell id="EzDOxzL3QdiLNxSiTgu5-34" value="UI Administrador" style="rounded=0;whiteSpace=wrap;html=1;" vertex="1" parent="A97eziM5Pve03ugUNSIb-11">
          <mxGeometry x="50" y="300" width="80" height="40" as="geometry" />
        </mxCell>
        <mxCell id="EzDOxzL3QdiLNxSiTgu5-35" value="" style="rounded=0;whiteSpace=wrap;html=1;fillColor=#f5f5f5;fontColor=#333333;strokeColor=#666666;" vertex="1" parent="A97eziM5Pve03ugUNSIb-11">
          <mxGeometry x="40" y="415" width="80" height="40" as="geometry" />
        </mxCell>
        <mxCell id="EzDOxzL3QdiLNxSiTgu5-36" value="Interfaz de Comunicación" style="rounded=0;whiteSpace=wrap;html=1;" vertex="1" parent="A97eziM5Pve03ugUNSIb-11">
          <mxGeometry x="50" y="425" width="80" height="40" as="geometry" />
        </mxCell>
        <mxCell id="EzDOxzL3QdiLNxSiTgu5-130" value="Interfaz" style="rounded=0;whiteSpace=wrap;html=1;fillColor=#f5f5f5;strokeColor=#666666;fontColor=#333333;" vertex="1" parent="A97eziM5Pve03ugUNSIb-11">
          <mxGeometry x="50" width="120" height="30" as="geometry" />
        </mxCell>
        <mxCell id="EzDOxzL3QdiLNxSiTgu5-71" style="edgeStyle=orthogonalEdgeStyle;rounded=0;orthogonalLoop=1;jettySize=auto;html=1;exitX=0;exitY=0.5;exitDx=0;exitDy=0;exitPerimeter=0;dashed=1;entryX=0.993;entryY=0.342;entryDx=0;entryDy=0;entryPerimeter=0;" edge="1" parent="1" source="EzDOxzL3QdiLNxSiTgu5-38" target="A97eziM5Pve03ugUNSIb-25">
          <mxGeometry relative="1" as="geometry">
            <mxPoint x="590" y="543" as="targetPoint" />
            <Array as="points">
              <mxPoint x="832" y="560" />
              <mxPoint x="770" y="560" />
              <mxPoint x="770" y="625" />
            </Array>
          </mxGeometry>
        </mxCell>
        <mxCell id="EzDOxzL3QdiLNxSiTgu5-72" style="edgeStyle=orthogonalEdgeStyle;rounded=0;orthogonalLoop=1;jettySize=auto;html=1;exitX=0.145;exitY=1;exitDx=0;exitDy=-4.35;exitPerimeter=0;dashed=1;entryX=1;entryY=0.5;entryDx=0;entryDy=0;" edge="1" parent="1" source="EzDOxzL3QdiLNxSiTgu5-38" target="EzDOxzL3QdiLNxSiTgu5-50">
          <mxGeometry relative="1" as="geometry">
            <mxPoint x="405" y="569" as="targetPoint" />
            <Array as="points">
              <mxPoint x="842" y="578" />
            </Array>
          </mxGeometry>
        </mxCell>
        <mxCell id="EzDOxzL3QdiLNxSiTgu5-38" value="Vecinos" style="shape=cylinder3;whiteSpace=wrap;html=1;boundedLbl=1;backgroundOutline=1;size=15;" vertex="1" parent="1">
          <mxGeometry x="831.5" y="545" width="73" height="55" as="geometry" />
        </mxCell>
        <mxCell id="EzDOxzL3QdiLNxSiTgu5-74" style="edgeStyle=orthogonalEdgeStyle;rounded=0;orthogonalLoop=1;jettySize=auto;html=1;exitX=1;exitY=0.5;exitDx=0;exitDy=0;exitPerimeter=0;entryX=1;entryY=0.75;entryDx=0;entryDy=0;dashed=1;" edge="1" parent="1" source="EzDOxzL3QdiLNxSiTgu5-39" target="EzDOxzL3QdiLNxSiTgu5-47">
          <mxGeometry relative="1" as="geometry">
            <Array as="points">
              <mxPoint x="950" y="633" />
              <mxPoint x="950" y="874" />
            </Array>
          </mxGeometry>
        </mxCell>
        <mxCell id="EzDOxzL3QdiLNxSiTgu5-39" value="Suscripciones" style="shape=cylinder3;whiteSpace=wrap;html=1;boundedLbl=1;backgroundOutline=1;size=15;" vertex="1" parent="1">
          <mxGeometry x="829" y="602.5" width="78" height="60" as="geometry" />
        </mxCell>
        <mxCell id="EzDOxzL3QdiLNxSiTgu5-88" style="edgeStyle=orthogonalEdgeStyle;rounded=0;orthogonalLoop=1;jettySize=auto;html=1;exitX=0;exitY=0.5;exitDx=0;exitDy=0;exitPerimeter=0;entryX=1;entryY=0.5;entryDx=0;entryDy=0;dashed=1;" edge="1" parent="1" source="EzDOxzL3QdiLNxSiTgu5-40" target="EzDOxzL3QdiLNxSiTgu5-49">
          <mxGeometry relative="1" as="geometry">
            <Array as="points">
              <mxPoint x="810" y="508" />
              <mxPoint x="810" y="423" />
            </Array>
          </mxGeometry>
        </mxCell>
        <mxCell id="EzDOxzL3QdiLNxSiTgu5-40" value="Imagenes" style="shape=cylinder3;whiteSpace=wrap;html=1;boundedLbl=1;backgroundOutline=1;size=15;" vertex="1" parent="1">
          <mxGeometry x="832" y="475" width="78" height="65" as="geometry" />
        </mxCell>
        <mxCell id="EzDOxzL3QdiLNxSiTgu5-78" style="edgeStyle=orthogonalEdgeStyle;rounded=0;orthogonalLoop=1;jettySize=auto;html=1;exitX=0;exitY=0;exitDx=0;exitDy=20;exitPerimeter=0;entryX=1;entryY=0.25;entryDx=0;entryDy=0;startArrow=classic;startFill=1;dashed=1;" edge="1" parent="1" source="EzDOxzL3QdiLNxSiTgu5-41" target="EzDOxzL3QdiLNxSiTgu5-44">
          <mxGeometry relative="1" as="geometry" />
        </mxCell>
        <mxCell id="EzDOxzL3QdiLNxSiTgu5-41" value="Preguntas" style="shape=cylinder3;whiteSpace=wrap;html=1;boundedLbl=1;backgroundOutline=1;size=15;" vertex="1" parent="1">
          <mxGeometry x="832" y="670" width="78" height="50" as="geometry" />
        </mxCell>
        <mxCell id="EzDOxzL3QdiLNxSiTgu5-42" value="&lt;font style=&quot;font-size: 10px;&quot;&gt;Reporte de errores&amp;nbsp; de mail&lt;/font&gt;" style="shape=cylinder3;whiteSpace=wrap;html=1;boundedLbl=1;backgroundOutline=1;size=15;" vertex="1" parent="1">
          <mxGeometry x="828.5" y="810" width="101.5" height="60" as="geometry" />
        </mxCell>
        <mxCell id="EzDOxzL3QdiLNxSiTgu5-52" value="" style="edgeStyle=entityRelationEdgeStyle;fontSize=12;html=1;endArrow=ERmany;rounded=0;entryX=1;entryY=0.5;entryDx=0;entryDy=0;exitX=0;exitY=0.5;exitDx=0;exitDy=0;endFill=0;" edge="1" parent="1" source="EzDOxzL3QdiLNxSiTgu5-43" target="EzDOxzL3QdiLNxSiTgu5-36">
          <mxGeometry width="100" height="100" relative="1" as="geometry">
            <mxPoint x="280" y="740" as="sourcePoint" />
            <mxPoint x="380" y="640" as="targetPoint" />
          </mxGeometry>
        </mxCell>
        <mxCell id="EzDOxzL3QdiLNxSiTgu5-53" value="" style="fontSize=12;html=1;endArrow=ERmany;rounded=0;entryX=1;entryY=0.75;entryDx=0;entryDy=0;exitX=0;exitY=0.75;exitDx=0;exitDy=0;endFill=0;dashed=1;" edge="1" parent="1" source="EzDOxzL3QdiLNxSiTgu5-44" target="EzDOxzL3QdiLNxSiTgu5-34">
          <mxGeometry width="100" height="100" relative="1" as="geometry">
            <mxPoint x="573" y="643" as="sourcePoint" />
            <mxPoint x="300" y="640" as="targetPoint" />
            <Array as="points" />
          </mxGeometry>
        </mxCell>
        <mxCell id="EzDOxzL3QdiLNxSiTgu5-54" style="edgeStyle=orthogonalEdgeStyle;rounded=0;orthogonalLoop=1;jettySize=auto;html=1;exitX=1;exitY=1;exitDx=0;exitDy=0;entryX=0;entryY=0.25;entryDx=0;entryDy=0;endArrow=none;startFill=0;startArrow=ERmany;dashed=1;" edge="1" parent="1" source="EzDOxzL3QdiLNxSiTgu5-32" target="EzDOxzL3QdiLNxSiTgu5-44">
          <mxGeometry relative="1" as="geometry">
            <Array as="points">
              <mxPoint x="200" y="590" />
              <mxPoint x="200" y="650" />
              <mxPoint x="440" y="650" />
              <mxPoint x="440" y="671" />
            </Array>
          </mxGeometry>
        </mxCell>
        <mxCell id="EzDOxzL3QdiLNxSiTgu5-55" style="edgeStyle=orthogonalEdgeStyle;rounded=0;orthogonalLoop=1;jettySize=auto;html=1;entryX=0;entryY=0.75;entryDx=0;entryDy=0;endArrow=none;startFill=0;startArrow=ERmany;dashed=1;exitX=1;exitY=0.5;exitDx=0;exitDy=0;" edge="1" parent="1" source="EzDOxzL3QdiLNxSiTgu5-34" target="EzDOxzL3QdiLNxSiTgu5-46">
          <mxGeometry relative="1" as="geometry">
            <mxPoint x="150" y="640" as="sourcePoint" />
            <Array as="points">
              <mxPoint x="420" y="680" />
              <mxPoint x="420" y="544" />
            </Array>
          </mxGeometry>
        </mxCell>
        <mxCell id="EzDOxzL3QdiLNxSiTgu5-57" style="edgeStyle=orthogonalEdgeStyle;rounded=0;orthogonalLoop=1;jettySize=auto;html=1;entryX=0;entryY=0.5;entryDx=0;entryDy=0;endArrow=none;startFill=0;dashed=1;startArrow=ERmany;exitX=1;exitY=0.5;exitDx=0;exitDy=0;" edge="1" parent="1" source="EzDOxzL3QdiLNxSiTgu5-32" target="EzDOxzL3QdiLNxSiTgu5-50">
          <mxGeometry relative="1" as="geometry">
            <mxPoint x="160" y="570" as="sourcePoint" />
            <Array as="points">
              <mxPoint x="470" y="570" />
            </Array>
          </mxGeometry>
        </mxCell>
        <mxCell id="EzDOxzL3QdiLNxSiTgu5-59" style="edgeStyle=orthogonalEdgeStyle;rounded=0;orthogonalLoop=1;jettySize=auto;html=1;exitX=1;exitY=0;exitDx=0;exitDy=0;entryX=0;entryY=0.75;entryDx=0;entryDy=0;dashed=1;endArrow=none;startFill=0;startArrow=ERmany;" edge="1" parent="1" source="EzDOxzL3QdiLNxSiTgu5-32" target="EzDOxzL3QdiLNxSiTgu5-49">
          <mxGeometry relative="1" as="geometry">
            <Array as="points">
              <mxPoint x="210" y="550" />
              <mxPoint x="210" y="434" />
            </Array>
          </mxGeometry>
        </mxCell>
        <mxCell id="EzDOxzL3QdiLNxSiTgu5-60" style="edgeStyle=orthogonalEdgeStyle;rounded=0;orthogonalLoop=1;jettySize=auto;html=1;exitX=1;exitY=0.75;exitDx=0;exitDy=0;endArrow=none;startFill=0;dashed=1;startArrow=ERmany;entryX=0;entryY=0.25;entryDx=0;entryDy=0;" edge="1" parent="1" source="EzDOxzL3QdiLNxSiTgu5-32" target="A97eziM5Pve03ugUNSIb-25">
          <mxGeometry relative="1" as="geometry">
            <mxPoint x="470" y="621" as="targetPoint" />
            <Array as="points">
              <mxPoint x="250" y="580" />
              <mxPoint x="250" y="621" />
            </Array>
          </mxGeometry>
        </mxCell>
        <mxCell id="EzDOxzL3QdiLNxSiTgu5-61" style="edgeStyle=orthogonalEdgeStyle;rounded=0;orthogonalLoop=1;jettySize=auto;html=1;exitX=1;exitY=0;exitDx=0;exitDy=0;entryX=0;entryY=0.5;entryDx=0;entryDy=0;endArrow=none;startFill=0;startArrow=ERmany;dashed=1;" edge="1" parent="1" source="EzDOxzL3QdiLNxSiTgu5-30" target="EzDOxzL3QdiLNxSiTgu5-49">
          <mxGeometry relative="1" as="geometry">
            <Array as="points">
              <mxPoint x="200" y="470" />
              <mxPoint x="200" y="422" />
            </Array>
          </mxGeometry>
        </mxCell>
        <mxCell id="EzDOxzL3QdiLNxSiTgu5-62" style="edgeStyle=orthogonalEdgeStyle;rounded=0;orthogonalLoop=1;jettySize=auto;html=1;exitX=1;exitY=0.5;exitDx=0;exitDy=0;entryX=0;entryY=0.5;entryDx=0;entryDy=0;endArrow=none;startFill=0;dashed=1;startArrow=ERmany;" edge="1" parent="1" source="EzDOxzL3QdiLNxSiTgu5-30" target="EzDOxzL3QdiLNxSiTgu5-48">
          <mxGeometry relative="1" as="geometry">
            <Array as="points">
              <mxPoint x="470" y="490" />
            </Array>
          </mxGeometry>
        </mxCell>
        <mxCell id="EzDOxzL3QdiLNxSiTgu5-65" style="edgeStyle=orthogonalEdgeStyle;rounded=0;orthogonalLoop=1;jettySize=auto;html=1;exitX=0;exitY=0.5;exitDx=0;exitDy=0;startArrow=none;startFill=0;endArrow=ERmany;dashed=1;endFill=0;" edge="1" parent="1" source="EzDOxzL3QdiLNxSiTgu5-31" target="EQA5PCKPnz818NsDyb5s-36">
          <mxGeometry relative="1" as="geometry" />
        </mxCell>
        <mxCell id="EzDOxzL3QdiLNxSiTgu5-70" style="edgeStyle=orthogonalEdgeStyle;rounded=0;orthogonalLoop=1;jettySize=auto;html=1;startArrow=classic;startFill=1;dashed=1;exitX=1;exitY=0.75;exitDx=0;exitDy=0;entryX=0.046;entryY=0.182;entryDx=0;entryDy=0;entryPerimeter=0;" edge="1" parent="1" source="EzDOxzL3QdiLNxSiTgu5-48" target="EzDOxzL3QdiLNxSiTgu5-38">
          <mxGeometry relative="1" as="geometry">
            <mxPoint x="837" y="540" as="targetPoint" />
            <Array as="points">
              <mxPoint x="800" y="494" />
              <mxPoint x="800" y="555" />
            </Array>
          </mxGeometry>
        </mxCell>
        <mxCell id="EzDOxzL3QdiLNxSiTgu5-73" style="edgeStyle=orthogonalEdgeStyle;rounded=0;orthogonalLoop=1;jettySize=auto;html=1;exitX=1;exitY=0.75;exitDx=0;exitDy=0;dashed=1;" edge="1" parent="1" source="A97eziM5Pve03ugUNSIb-25">
          <mxGeometry relative="1" as="geometry">
            <Array as="points">
              <mxPoint x="588" y="636" />
              <mxPoint x="829" y="636" />
            </Array>
            <mxPoint x="830" y="636" as="targetPoint" />
          </mxGeometry>
        </mxCell>
        <mxCell id="EzDOxzL3QdiLNxSiTgu5-75" style="edgeStyle=orthogonalEdgeStyle;rounded=0;orthogonalLoop=1;jettySize=auto;html=1;entryX=0;entryY=0;entryDx=0;entryDy=37.5;entryPerimeter=0;dashed=1;" edge="1" parent="1" source="EzDOxzL3QdiLNxSiTgu5-46" target="EQA5PCKPnz818NsDyb5s-20">
          <mxGeometry relative="1" as="geometry">
            <mxPoint x="590" y="590" as="sourcePoint" />
            <Array as="points">
              <mxPoint x="760" y="530" />
              <mxPoint x="760" y="438" />
            </Array>
          </mxGeometry>
        </mxCell>
        <mxCell id="EzDOxzL3QdiLNxSiTgu5-79" style="edgeStyle=orthogonalEdgeStyle;rounded=0;orthogonalLoop=1;jettySize=auto;html=1;entryX=0.07;entryY=0.829;entryDx=0;entryDy=0;entryPerimeter=0;startArrow=classic;startFill=1;dashed=1;" edge="1" parent="1" target="EzDOxzL3QdiLNxSiTgu5-42">
          <mxGeometry relative="1" as="geometry">
            <mxPoint x="588" y="860" as="sourcePoint" />
            <Array as="points" />
          </mxGeometry>
        </mxCell>
        <mxCell id="EzDOxzL3QdiLNxSiTgu5-82" style="edgeStyle=orthogonalEdgeStyle;rounded=0;orthogonalLoop=1;jettySize=auto;html=1;exitX=1;exitY=0.75;exitDx=0;exitDy=0;dashed=1;" edge="1" parent="1" source="EzDOxzL3QdiLNxSiTgu5-45" target="EQA5PCKPnz818NsDyb5s-19">
          <mxGeometry relative="1" as="geometry" />
        </mxCell>
        <mxCell id="EzDOxzL3QdiLNxSiTgu5-77" style="edgeStyle=orthogonalEdgeStyle;rounded=0;orthogonalLoop=1;jettySize=auto;html=1;exitX=1;exitY=1;exitDx=0;exitDy=-15;exitPerimeter=0;dashed=1;" edge="1" parent="1" source="EQA5PCKPnz818NsDyb5s-20" target="EzDOxzL3QdiLNxSiTgu5-45">
          <mxGeometry relative="1" as="geometry">
            <mxPoint x="936.5" y="440.0000000000001" as="sourcePoint" />
            <mxPoint x="609.9999999999998" y="736.25" as="targetPoint" />
            <Array as="points">
              <mxPoint x="930" y="435" />
              <mxPoint x="930" y="735" />
            </Array>
          </mxGeometry>
        </mxCell>
        <mxCell id="EzDOxzL3QdiLNxSiTgu5-83" style="edgeStyle=orthogonalEdgeStyle;rounded=0;orthogonalLoop=1;jettySize=auto;html=1;dashed=1;entryX=0;entryY=0;entryDx=0;entryDy=41.25;entryPerimeter=0;" edge="1" parent="1" source="EzDOxzL3QdiLNxSiTgu5-46" target="EzDOxzL3QdiLNxSiTgu5-40">
          <mxGeometry relative="1" as="geometry">
            <Array as="points">
              <mxPoint x="770" y="540" />
              <mxPoint x="770" y="516" />
            </Array>
            <mxPoint x="840" y="485" as="targetPoint" />
          </mxGeometry>
        </mxCell>
        <mxCell id="EzDOxzL3QdiLNxSiTgu5-105" value="" style="edgeStyle=orthogonalEdgeStyle;rounded=0;orthogonalLoop=1;jettySize=auto;html=1;exitX=1;exitY=0.25;exitDx=0;exitDy=0;endArrow=none;startFill=0;startArrow=ERmany;dashed=1;entryX=0;entryY=0.75;entryDx=0;entryDy=0;" edge="1" parent="1" source="EzDOxzL3QdiLNxSiTgu5-34" target="EzDOxzL3QdiLNxSiTgu5-50">
          <mxGeometry relative="1" as="geometry">
            <mxPoint x="150" y="670" as="sourcePoint" />
            <mxPoint x="360" y="580" as="targetPoint" />
            <Array as="points">
              <mxPoint x="210" y="670" />
              <mxPoint x="210" y="590" />
              <mxPoint x="470" y="590" />
            </Array>
          </mxGeometry>
        </mxCell>
        <mxCell id="EzDOxzL3QdiLNxSiTgu5-106" value="" style="rounded=0;whiteSpace=wrap;html=1;fillColor=none;" vertex="1" parent="1">
          <mxGeometry x="110" y="240" width="750" height="100" as="geometry" />
        </mxCell>
        <mxCell id="EzDOxzL3QdiLNxSiTgu5-108" style="edgeStyle=orthogonalEdgeStyle;rounded=0;orthogonalLoop=1;jettySize=auto;html=1;endArrow=none;startFill=0;startArrow=ERmany;dashed=1;" edge="1" parent="1">
          <mxGeometry relative="1" as="geometry">
            <mxPoint x="397" y="259.33" as="sourcePoint" />
            <mxPoint x="260" y="260" as="targetPoint" />
            <Array as="points">
              <mxPoint x="280" y="259" />
              <mxPoint x="280" y="259" />
            </Array>
          </mxGeometry>
        </mxCell>
        <mxCell id="EzDOxzL3QdiLNxSiTgu5-120" value="&lt;font style=&quot;font-size: 9px;&quot;&gt;CALL SINCRONICO (cliente/ servidor)&lt;/font&gt;" style="edgeLabel;html=1;align=center;verticalAlign=middle;resizable=0;points=[];" connectable="0" vertex="1" parent="EzDOxzL3QdiLNxSiTgu5-108">
          <mxGeometry x="-0.2966" y="3" relative="1" as="geometry">
            <mxPoint x="-10" y="7" as="offset" />
          </mxGeometry>
        </mxCell>
        <mxCell id="EzDOxzL3QdiLNxSiTgu5-111" value="" style="endArrow=none;html=1;rounded=0;startArrow=ERmany;startFill=0;" edge="1" parent="1">
          <mxGeometry width="50" height="50" relative="1" as="geometry">
            <mxPoint x="400" y="295" as="sourcePoint" />
            <mxPoint x="260" y="295" as="targetPoint" />
          </mxGeometry>
        </mxCell>
        <mxCell id="EzDOxzL3QdiLNxSiTgu5-112" value="" style="endArrow=classic;startArrow=classic;html=1;rounded=0;dashed=1;" edge="1" parent="1">
          <mxGeometry width="50" height="50" relative="1" as="geometry">
            <mxPoint x="460" y="260" as="sourcePoint" />
            <mxPoint x="580" y="260" as="targetPoint" />
          </mxGeometry>
        </mxCell>
        <mxCell id="EzDOxzL3QdiLNxSiTgu5-113" value="" style="endArrow=classic;html=1;rounded=0;dashed=1;" edge="1" parent="1">
          <mxGeometry width="50" height="50" relative="1" as="geometry">
            <mxPoint x="465" y="300" as="sourcePoint" />
            <mxPoint x="585" y="300" as="targetPoint" />
          </mxGeometry>
        </mxCell>
        <mxCell id="EzDOxzL3QdiLNxSiTgu5-114" value="" style="endArrow=classic;html=1;rounded=0;dashed=1;" edge="1" parent="1">
          <mxGeometry width="50" height="50" relative="1" as="geometry">
            <mxPoint x="795" y="260" as="sourcePoint" />
            <mxPoint x="675" y="260.43" as="targetPoint" />
          </mxGeometry>
        </mxCell>
        <mxCell id="EzDOxzL3QdiLNxSiTgu5-117" value="" style="group" connectable="0" vertex="1" parent="1">
          <mxGeometry x="675" y="300" width="120" as="geometry" />
        </mxCell>
        <mxCell id="EzDOxzL3QdiLNxSiTgu5-115" value="" style="rounded=0;orthogonalLoop=1;jettySize=auto;html=1;endArrow=halfCircle;endFill=0;endSize=6;strokeWidth=1;sketch=0;" edge="1" parent="EzDOxzL3QdiLNxSiTgu5-117">
          <mxGeometry relative="1" as="geometry">
            <mxPoint x="119.99999999999999" as="sourcePoint" />
            <mxPoint x="65.45454545454545" as="targetPoint" />
            <Array as="points">
              <mxPoint x="98.18181818181817" />
            </Array>
          </mxGeometry>
        </mxCell>
        <mxCell id="EzDOxzL3QdiLNxSiTgu5-116" value="" style="rounded=0;orthogonalLoop=1;jettySize=auto;html=1;endArrow=oval;endFill=0;sketch=0;sourcePerimeterSpacing=0;targetPerimeterSpacing=0;endSize=10;" edge="1" parent="EzDOxzL3QdiLNxSiTgu5-117">
          <mxGeometry relative="1" as="geometry">
            <mxPoint as="sourcePoint" />
            <mxPoint x="54.54545454545454" as="targetPoint" />
            <Array as="points">
              <mxPoint x="43.63636363636363" />
            </Array>
          </mxGeometry>
        </mxCell>
        <mxCell id="EzDOxzL3QdiLNxSiTgu5-121" value="&lt;font style=&quot;font-size: 9px;&quot;&gt;CALL SINCRONICO (emisor / receptor)&lt;/font&gt;" style="edgeLabel;html=1;align=center;verticalAlign=middle;resizable=0;points=[];" connectable="0" vertex="1" parent="1">
          <mxGeometry x="330" y="305" as="geometry" />
        </mxCell>
        <mxCell id="EzDOxzL3QdiLNxSiTgu5-123" value="&lt;div style=&quot;text-align: center;&quot;&gt;&lt;span style=&quot;color: light-dark(rgb(0, 0, 0), rgb(255, 255, 255)); text-wrap-mode: nowrap; background-color: rgb(255, 255, 255);&quot;&gt;&lt;font style=&quot;font-size: 9px;&quot;&gt;LECTURA / ESCRITURA EN REPOSITORIO&lt;/font&gt;&lt;/span&gt;&lt;/div&gt;" style="text;whiteSpace=wrap;html=1;" vertex="1" parent="1">
          <mxGeometry x="440" y="260" width="170" height="30" as="geometry" />
        </mxCell>
        <mxCell id="EzDOxzL3QdiLNxSiTgu5-124" value="&lt;div style=&quot;text-align: center;&quot;&gt;&lt;span style=&quot;color: light-dark(rgb(0, 0, 0), rgb(255, 255, 255)); text-wrap-mode: nowrap; background-color: rgb(255, 255, 255);&quot;&gt;&lt;font style=&quot;font-size: 9px;&quot;&gt;ESCRITURA EN REPOSITORIO&lt;/font&gt;&lt;/span&gt;&lt;/div&gt;" style="text;whiteSpace=wrap;html=1;" vertex="1" parent="1">
          <mxGeometry x="460" y="300" width="140" height="20" as="geometry" />
        </mxCell>
        <mxCell id="EzDOxzL3QdiLNxSiTgu5-125" value="&lt;div style=&quot;text-align: center;&quot;&gt;&lt;span style=&quot;color: light-dark(rgb(0, 0, 0), rgb(255, 255, 255)); text-wrap-mode: nowrap; background-color: rgb(255, 255, 255);&quot;&gt;&lt;font style=&quot;font-size: 9px;&quot;&gt;LECTURA EN REPOSITORIO&lt;/font&gt;&lt;/span&gt;&lt;/div&gt;" style="text;whiteSpace=wrap;html=1;" vertex="1" parent="1">
          <mxGeometry x="680" y="260" width="140" height="20" as="geometry" />
        </mxCell>
        <mxCell id="EzDOxzL3QdiLNxSiTgu5-126" value="&lt;div style=&quot;text-align: center;&quot;&gt;&lt;span style=&quot;color: light-dark(rgb(0, 0, 0), rgb(255, 255, 255)); text-wrap-mode: nowrap; background-color: rgb(255, 255, 255);&quot;&gt;&lt;font style=&quot;font-size: 9px;&quot;&gt;PIPE (CONECTOR CON BUFFER TEMPORAL)&lt;/font&gt;&lt;/span&gt;&lt;/div&gt;" style="text;whiteSpace=wrap;html=1;" vertex="1" parent="1">
          <mxGeometry x="640" y="300" width="130" height="20" as="geometry" />
        </mxCell>
        <mxCell id="EzDOxzL3QdiLNxSiTgu5-127" value="Persistencia" style="rounded=0;whiteSpace=wrap;html=1;fillColor=#f5f5f5;strokeColor=#666666;fontColor=#333333;" vertex="1" parent="1">
          <mxGeometry x="836" y="360" width="120" height="30" as="geometry" />
        </mxCell>
        <mxCell id="EzDOxzL3QdiLNxSiTgu5-131" value="Notación" style="rounded=0;whiteSpace=wrap;html=1;fillColor=#f5f5f5;strokeColor=#666666;fontColor=#333333;" vertex="1" parent="1">
          <mxGeometry x="110" y="240" width="120" height="30" as="geometry" />
        </mxCell>
      </root>
    </mxGraphModel>
  </diagram>
</mxfile>
